<svg width="137" height="54" viewBox="0 0 137 54" fill="none" xmlns="http://www.w3.org/2000/svg">
<path d="M35.1787 20.336C32.1547 20.336 29.8187 19.568 28.1707 18.032C26.5387 16.496 25.7227 14.04 25.7227 10.664C25.7227 4.216 28.8587 0.991999 35.1307 0.991999C36.6507 0.991999 38.0587 1.176 39.3547 1.544C40.6667 1.912 41.6427 2.32 42.2827 2.768V8.768H36.5227V7.04C36.5227 6.432 36.3867 5.984 36.1147 5.696C35.8427 5.408 35.4347 5.264 34.8907 5.264C34.3467 5.264 33.9387 5.408 33.6667 5.696C33.3947 5.984 33.2587 6.432 33.2587 7.04V14.288C33.2587 14.896 33.3947 15.344 33.6667 15.632C33.9387 15.92 34.3467 16.064 34.8907 16.064C35.4347 16.064 35.8427 15.92 36.1147 15.632C36.3867 15.344 36.5227 14.896 36.5227 14.288V12.344H42.2827V18.56C41.6267 19.008 40.6507 19.416 39.3547 19.784C38.0747 20.152 36.6827 20.336 35.1787 20.336ZM63.3433 20V16.064H64.5433V5.264H63.3433V1.328H72.4633V5.264H71.2633V16.064H72.4633V20H63.3433ZM103.948 1.328H111.316V5.264H110.356L105.724 13.568V16.064H106.924V20H97.8045V16.064H99.0045V13.568L94.2285 5.264H93.2685V1.328H102.556V5.264H101.716L103.132 8.984H103.372L104.788 5.264H103.948V1.328ZM19.2127 47H18.0127V51.8C17.3087 52.2 16.2767 52.56 14.9167 52.88C13.5727 53.184 12.1167 53.336 10.5487 53.336C7.55672 53.336 5.21272 52.552 3.51672 50.984C1.82072 49.4 0.972719 46.96 0.972719 43.664C0.972719 40.288 1.81272 37.832 3.49272 36.296C5.18872 34.76 7.60472 33.992 10.7407 33.992C12.2607 33.992 13.6847 34.152 15.0127 34.472C16.3407 34.792 17.3407 35.152 18.0127 35.552V41.288H12.0127V40.16C12.0127 39.488 11.8687 39.008 11.5807 38.72C11.3087 38.416 10.8687 38.264 10.2607 38.264C9.65272 38.264 9.20472 38.416 8.91672 38.72C8.64472 39.008 8.50872 39.488 8.50872 40.16V47.168C8.50872 47.84 8.64472 48.328 8.91672 48.632C9.20472 48.92 9.65272 49.064 10.2607 49.064C10.8687 49.064 11.3087 48.92 11.5807 48.632C11.8687 48.328 12.0127 47.84 12.0127 47.168V47H10.7167V43.424H19.2127V47ZM65.1122 38.264H63.9122V49.064H65.1122V53H56.0402V49.064H57.1922V40.664L53.1122 53H49.5602L45.3602 40.784V49.064H46.5122V53H38.6402V49.064H39.8402V38.264H38.6402V34.328H49.6322L52.1282 41.816L54.5282 34.328H65.1122V38.264ZM93.4839 53V49.064H94.6839V38.264H93.4839V34.328H102.604V38.264H101.404V49.064H102.604V53H93.4839ZM128.111 53.336C126.575 53.336 125.119 53.208 123.743 52.952C122.383 52.68 121.335 52.376 120.599 52.04V47.288H125.879C125.879 47.784 125.991 48.144 126.215 48.368C126.439 48.592 126.847 48.704 127.439 48.704C127.935 48.704 128.287 48.632 128.495 48.488C128.719 48.328 128.831 48.096 128.831 47.792C128.831 47.536 128.727 47.32 128.519 47.144C128.311 46.952 127.951 46.76 127.439 46.568L125.375 45.848C123.599 45.176 122.319 44.384 121.535 43.472C120.767 42.56 120.383 41.328 120.383 39.776C120.383 37.888 120.999 36.456 122.231 35.48C123.479 34.488 125.551 33.992 128.447 33.992C129.839 33.992 131.143 34.136 132.359 34.424C133.591 34.696 134.583 35.064 135.335 35.528V39.824H130.535C130.535 39.024 130.039 38.624 129.047 38.624C128.567 38.624 128.223 38.688 128.015 38.816C127.823 38.928 127.727 39.136 127.727 39.44C127.727 39.712 127.839 39.928 128.063 40.088C128.303 40.248 128.687 40.416 129.215 40.592L131.303 41.312C132.999 41.888 134.231 42.64 134.999 43.568C135.783 44.48 136.175 45.68 136.175 47.168C136.175 49.2 135.487 50.736 134.111 51.776C132.751 52.816 130.751 53.336 128.111 53.336Z" fill="#DB1313"/>
<path d="M62.387 5.264H61.187V16.064H62.387V20H53.315V16.064H54.467V12.104H51.107V16.064H52.259V20H43.187V16.064H44.387V5.264H43.187V1.328H52.259V5.264H51.107V8.912H54.467V5.264H53.315V1.328H62.387V5.264Z" fill="#F98316"/>
<path d="M91.3974 16.064H92.5974V20H86.0454L82.4454 12.56L81.3414 13.472V16.064H82.4934V20H73.4214V16.064H74.6214V5.264H73.4214V1.328H82.4934V5.264H81.3414V8.432L85.0614 5.264H83.5494V1.328H92.4774V5.264H91.2774L87.2694 8.576L91.3974 16.064Z" fill="#D4D816"/>
<path d="M28.8662 53.336C26.3542 53.336 24.4102 52.784 23.0342 51.68C21.6742 50.576 20.9942 48.784 20.9942 46.304V38.264H19.7942V34.328H28.6742V38.264H27.7142V47.528C27.7142 48.056 27.8262 48.448 28.0502 48.704C28.2902 48.944 28.6422 49.064 29.1062 49.064C29.5702 49.064 29.9142 48.944 30.1382 48.704C30.3782 48.448 30.4982 48.056 30.4982 47.528V38.264H29.5382V34.328H37.7702V38.264H36.5702V46.304C36.5702 48.784 35.9062 50.576 34.5782 51.68C33.2502 52.784 31.3462 53.336 28.8662 53.336Z" fill="#54DB14"/>
<path d="M92.534 38.264H91.334V49.064H92.534V53H83.462V49.064H84.614V40.664L80.534 53H76.982L72.782 40.784V49.064H73.934V53H66.062V49.064H67.262V38.264H66.062V34.328H77.054L79.55 41.816L81.95 34.328H92.534V38.264Z" fill="#13DBDB"/>
<path d="M103.562 53V49.064H104.762V38.264H103.562V34.328H119.762V41.576H114.386V38.264H111.482V42.056H113.594V44.792H111.482V49.064H114.386V45.272H119.762V53H103.562Z" fill="#CB13DB"/>
</svg>
