<svg width="236" height="21" viewBox="0 0 236 21" fill="none" xmlns="http://www.w3.org/2000/svg">
<path d="M9.62013 20.336C6.59613 20.336 4.26013 19.568 2.61213 18.032C0.980125 16.496 0.164125 14.04 0.164125 10.664C0.164125 4.216 3.30013 0.991999 9.57213 0.991999C11.0921 0.991999 12.5001 1.176 13.7961 1.544C15.1081 1.912 16.0841 2.32 16.7241 2.768V8.768H10.9641V7.04C10.9641 6.432 10.8281 5.984 10.5561 5.696C10.2841 5.408 9.87613 5.264 9.33213 5.264C8.78813 5.264 8.38013 5.408 8.10813 5.696C7.83613 5.984 7.70013 6.432 7.70013 7.04V14.288C7.70013 14.896 7.83613 15.344 8.10813 15.632C8.38013 15.92 8.78813 16.064 9.33213 16.064C9.87613 16.064 10.2841 15.92 10.5561 15.632C10.8281 15.344 10.9641 14.896 10.9641 14.288V12.344H16.7241V18.56C16.0681 19.008 15.0921 19.416 13.7961 19.784C12.5161 20.152 11.1241 20.336 9.62013 20.336ZM37.7847 20V16.064H38.9847V5.264H37.7847V1.328H46.9047V5.264H45.7047V16.064H46.9047V20H37.7847ZM78.3899 1.328H85.7579V5.264H84.7979L80.1659 13.568V16.064H81.3659V20H72.2459V16.064H73.4459V13.568L68.6699 5.264H67.7099V1.328H76.9979V5.264H76.1579L77.5739 8.984H77.8139L79.2299 5.264H78.3899V1.328ZM119.021 14H117.821V18.8C117.117 19.2 116.085 19.56 114.725 19.88C113.381 20.184 111.925 20.336 110.357 20.336C107.365 20.336 105.021 19.552 103.325 17.984C101.629 16.4 100.781 13.96 100.781 10.664C100.781 7.288 101.621 4.832 103.301 3.296C104.997 1.76 107.413 0.991999 110.549 0.991999C112.069 0.991999 113.493 1.152 114.821 1.472C116.149 1.792 117.149 2.152 117.821 2.552V8.288H111.821V7.16C111.821 6.488 111.677 6.008 111.389 5.72C111.117 5.416 110.677 5.264 110.069 5.264C109.461 5.264 109.013 5.416 108.725 5.72C108.453 6.008 108.317 6.488 108.317 7.16V14.168C108.317 14.84 108.453 15.328 108.725 15.632C109.013 15.92 109.461 16.064 110.069 16.064C110.677 16.064 111.117 15.92 111.389 15.632C111.677 15.328 111.821 14.84 111.821 14.168V14H110.525V10.424H119.021V14ZM164.921 5.264H163.721V16.064H164.921V20H155.849V16.064H157.001V7.664L152.921 20H149.369L145.169 7.784V16.064H146.321V20H138.449V16.064H139.649V5.264H138.449V1.328H149.441L151.937 8.816L154.337 1.328H164.921V5.264ZM193.293 20V16.064H194.493V5.264H193.293V1.328H202.413V5.264H201.213V16.064H202.413V20H193.293ZM227.92 20.336C226.384 20.336 224.928 20.208 223.552 19.952C222.192 19.68 221.144 19.376 220.408 19.04V14.288H225.688C225.688 14.784 225.8 15.144 226.024 15.368C226.248 15.592 226.656 15.704 227.248 15.704C227.744 15.704 228.096 15.632 228.304 15.488C228.528 15.328 228.64 15.096 228.64 14.792C228.64 14.536 228.536 14.32 228.328 14.144C228.12 13.952 227.76 13.76 227.248 13.568L225.184 12.848C223.408 12.176 222.128 11.384 221.344 10.472C220.576 9.56 220.192 8.328 220.192 6.776C220.192 4.888 220.808 3.456 222.04 2.48C223.288 1.488 225.36 0.991999 228.256 0.991999C229.648 0.991999 230.952 1.136 232.168 1.424C233.4 1.696 234.392 2.064 235.144 2.528V6.824H230.344C230.344 6.024 229.848 5.624 228.856 5.624C228.376 5.624 228.032 5.688 227.824 5.816C227.632 5.928 227.536 6.136 227.536 6.44C227.536 6.712 227.648 6.928 227.872 7.088C228.112 7.248 228.496 7.416 229.024 7.592L231.112 8.312C232.808 8.888 234.04 9.64 234.808 10.568C235.592 11.48 235.984 12.68 235.984 14.168C235.984 16.2 235.296 17.736 233.92 18.776C232.56 19.816 230.56 20.336 227.92 20.336Z" fill="#DB1313"/>
<path d="M36.8284 5.264H35.6284V16.064H36.8284V20H27.7564V16.064H28.9084V12.104H25.5484V16.064H26.7004V20H17.6284V16.064H18.8284V5.264H17.6284V1.328H26.7004V5.264H25.5484V8.912H28.9084V5.264H27.7564V1.328H36.8284V5.264Z" fill="#F98316"/>
<path d="M65.8388 16.064H67.0388V20H60.4868L56.8868 12.56L55.7828 13.472V16.064H56.9348V20H47.8628V16.064H49.0628V5.264H47.8628V1.328H56.9348V5.264H55.7828V8.432L59.5028 5.264H57.9908V1.328H66.9188V5.264H65.7188L61.7108 8.576L65.8388 16.064Z" fill="#D4D816"/>
<path d="M128.675 20.336C126.163 20.336 124.219 19.784 122.843 18.68C121.483 17.576 120.803 15.784 120.803 13.304V5.264H119.603V1.328H128.483V5.264H127.523V14.528C127.523 15.056 127.635 15.448 127.859 15.704C128.099 15.944 128.451 16.064 128.915 16.064C129.379 16.064 129.723 15.944 129.947 15.704C130.187 15.448 130.307 15.056 130.307 14.528V5.264H129.347V1.328H137.579V5.264H136.379V13.304C136.379 15.784 135.715 17.576 134.387 18.68C133.059 19.784 131.155 20.336 128.675 20.336Z" fill="#54DB14"/>
<path d="M192.343 5.264H191.143V16.064H192.343V20H183.271V16.064H184.423V7.664L180.343 20H176.791L172.591 7.784V16.064H173.743V20H165.871V16.064H167.071V5.264H165.871V1.328H176.863L179.359 8.816L181.759 1.328H192.343V5.264Z" fill="#13DBDB"/>
<path d="M203.371 20V16.064H204.571V5.264H203.371V1.328H219.571V8.576H214.195V5.264H211.291V9.056H213.403V11.792H211.291V16.064H214.195V12.272H219.571V20H203.371Z" fill="#CB13DB"/>
</svg>
